# xmcd CD database file
#
# Track frame offsets:
#	150
#	28055
#	60960
#	83702
#	93135
#	106535
#	128082
#	142407
#	181947
#	218507
#	238767
#
# Disc length: 3419 seconds
#
# Revision: 1
# Processed by: cddbd v1.4PL0 Copyright (c) Steve Scherf et al.
# Submitted via: CDex 1.51
#
DISCID=870d590b
DTITLE=John Singer and Paul Hurst - Moonlit Castle, Melodies for Shakuhachi and Harp
DYEAR=1990
DGENRE=New Age
TTITLE0=Cherry Blossoms
TTITLE1=Movement in Three Parts
TTITLE2=Counting
TTITLE3=To Infinity
TTITLE4=The Samurai of Kuroda
TTITLE5=Moon Over the Castle Ruins
TTITLE6=Song of the Shore
TTITLE7=Movement in Six Parts
TTITLE8=Spring Sea
TTITLE9=Seascape
TTITLE10=Melody of Itsuki
EXTD=YEAR: 1990
EXTT0=
EXTT1=
EXTT2=
EXTT3=
EXTT4=
EXTT5=
EXTT6=
EXTT7=
EXTT8=
EXTT9=
EXTT10=
PLAYORDER=
